<svg width="171" height="57" viewBox="0 0 171 57" fill="none" xmlns="http://www.w3.org/2000/svg">
<path d="M50.2369 34.6703C50.2369 37.3349 49.7248 39.4701 48.4229 41.692C48.041 42.0479 47.6417 42.3951 47.2338 42.7162C44.3435 44.9642 40.7676 46.2574 36.8011 46.2574H36.7056C33.7025 45.6325 31.1333 44.617 29.9095 43.6275C29.9009 43.6189 29.8835 43.6102 29.8748 43.6015C30.0744 43.5581 30.2654 43.5147 30.465 43.4539C30.8643 43.3411 31.2635 43.1936 31.6628 43.02C31.767 42.9766 31.8711 42.9245 31.9839 42.8724C32.0621 42.8377 32.1489 42.7943 32.227 42.7509C32.9213 42.4211 33.5289 42.0479 34.0583 41.6486C38.2332 38.5153 37.9207 33.6548 37.86 33.0299C37.2003 28.2388 33.2338 24.3851 28.3299 23.9945C26.1079 23.8123 24.0162 24.3243 22.2455 25.3398C25.1358 21.3733 29.8748 18.8302 35.1954 18.9778C43.2846 19.2034 49.9158 25.7565 50.2196 33.8284C50.2282 34.1148 50.2369 34.3926 50.2369 34.6703Z" fill="#1B1B1B"/>
<path d="M19.6764 29.1246C19.6764 34.1847 21.8723 38.7415 25.3615 41.8661C25.9604 42.4129 26.6027 42.9076 27.271 43.3589C29.9703 45.173 33.2078 46.2405 36.7056 46.2579H36.8011C40.7676 46.2579 44.3435 44.9646 47.2338 42.7167C47.6418 42.3955 48.041 42.0483 48.4229 41.6925C43.9096 49.4172 35.6293 54.5295 26.0298 54.5295C11.6479 54.5295 0 42.8729 0 28.4996C0 14.1264 11.4656 2.65211 25.7 2.47852H26.5332C36.992 2.66946 45.9406 9.04889 49.8897 18.0929C46.7564 14.3694 42.0522 11.9999 36.8011 11.9999C27.3404 11.9999 19.6764 19.6726 19.6764 29.1246Z" fill="#1B1B1B"/>
<path d="M81.0454 14.0933H75.9706V27.1294H80.2539C80.6264 27.1294 80.9989 27.1139 81.3713 27.0829C84.9718 26.6794 86.772 24.4601 86.772 20.4251C86.772 19.494 86.6479 18.6249 86.3996 17.8179C85.5926 15.3348 83.8078 14.0933 81.0454 14.0933ZM80.6264 40.8174H68.2421V39.6069H71.9667V14.0933H68.2421V12.8828H82.0231C84.0096 12.8828 85.7167 13.2242 87.1445 13.9071C89.8138 15.1486 91.1484 17.3058 91.1484 20.3786C91.1484 21.8063 90.8225 23.0634 90.1707 24.1497C88.5257 27.0363 85.158 28.4796 80.0677 28.4796H75.9706V39.6069H79.4159C79.5711 39.6069 79.7263 39.6224 79.8815 39.6534C80.3781 39.7466 80.6264 40.1345 80.6264 40.8174ZM114.8 40.8174H94.4075V39.6069H98.1321V14.0933H94.4075V12.8828H106.047V14.0933H102.136V39.6069H108.514C108.856 39.6069 109.213 39.5758 109.585 39.5138C111.323 39.1103 112.565 37.4808 113.31 34.6252L114.101 31.5059H115.033L114.8 40.8174ZM115.964 14.0933V12.8828H127.37V14.0933H123.692V30.0626C123.692 32.0801 123.91 33.7872 124.344 35.1839C125.337 38.3809 127.727 39.9793 131.514 39.9793C131.886 39.9793 132.259 39.9638 132.631 39.9328C137.101 39.4672 139.336 36.2237 139.336 30.2022V14.0933H135.611V12.8828H144.69V14.0933H140.965V29.9229C140.965 31.661 140.794 33.213 140.453 34.5787C139.305 39.0482 135.999 41.283 130.536 41.283C123.366 41.2519 119.75 37.6049 119.688 30.3419V14.0933H115.964ZM167.55 33.5078C167.55 35.4012 166.882 37.0307 165.548 38.3964C163.592 40.3208 160.83 41.283 157.26 41.283C154.219 41.283 151.503 40.4915 149.113 38.9085C149.113 39.5603 149.082 40.0104 149.02 40.2587C148.895 40.6932 148.461 40.9105 147.716 40.9105V31.2731H149.113C149.64 37.0152 152.279 39.9173 157.028 39.9793C158.238 39.9793 159.34 39.7621 160.333 39.3275C162.444 38.3653 163.499 36.7979 163.499 34.6252C163.499 33.7872 163.297 33.0112 162.894 32.2973C162.149 31.0248 160.38 29.7677 157.586 28.5262C154.575 27.2225 152.806 26.4311 152.279 26.1517C149.361 24.5067 147.902 22.3805 147.902 19.7733C147.902 18.0352 148.523 16.5143 149.765 15.2107C151.627 13.3484 154.234 12.4172 157.586 12.4172C160.349 12.4172 162.832 13.0225 165.035 14.233C165.035 13.8605 165.066 13.5656 165.129 13.3484C165.253 12.8828 165.687 12.65 166.432 12.65V20.7976H165.035C165.066 19.0594 164.632 17.5851 163.732 16.3746C162.366 14.6054 160.38 13.7208 157.772 13.7208C156.717 13.7208 155.755 13.8915 154.886 14.233C152.868 15.04 151.86 16.4832 151.86 18.5628C151.86 19.3388 152.046 20.0682 152.418 20.751C153.132 21.9926 154.87 23.2031 157.633 24.3825C160.675 25.7172 162.49 26.5397 163.08 26.8501C166.06 28.5262 167.55 30.7454 167.55 33.5078Z" fill="#1B1B1B"/>
</svg>
