<svg width="51" height="53" viewBox="0 0 51 53" fill="none" xmlns="http://www.w3.org/2000/svg">
<path d="M50.2369 32.6703C50.2369 35.3349 49.7248 37.4701 48.4229 39.692C48.041 40.0479 47.6417 40.3951 47.2338 40.7162C44.3435 42.9642 40.7676 44.2574 36.8011 44.2574H36.7056C33.7025 43.6325 31.1333 42.617 29.9095 41.6275C29.9009 41.6189 29.8835 41.6102 29.8748 41.6015C30.0744 41.5581 30.2654 41.5147 30.465 41.4539C30.8643 41.3411 31.2635 41.1936 31.6628 41.02C31.767 40.9766 31.8711 40.9245 31.9839 40.8724C32.0621 40.8377 32.1489 40.7943 32.227 40.7509C32.9213 40.4211 33.5289 40.0479 34.0583 39.6486C38.2332 36.5153 37.9207 31.6548 37.86 31.0299C37.2003 26.2388 33.2338 22.3851 28.3299 21.9945C26.1079 21.8123 24.0162 22.3243 22.2455 23.3398C25.1358 19.3733 29.8748 16.8302 35.1954 16.9778C43.2846 17.2034 49.9158 23.7565 50.2196 31.8284C50.2282 32.1148 50.2369 32.3926 50.2369 32.6703Z" fill="#1B1B1B"/>
<path d="M19.6764 27.1246C19.6764 32.1847 21.8723 36.7415 25.3615 39.8661C25.9604 40.4129 26.6027 40.9076 27.271 41.3589C29.9703 43.173 33.2078 44.2405 36.7056 44.2579H36.8011C40.7676 44.2579 44.3435 42.9646 47.2338 40.7167C47.6418 40.3955 48.041 40.0483 48.4229 39.6925C43.9096 47.4172 35.6293 52.5295 26.0298 52.5295C11.6479 52.5295 0 40.8729 0 26.4996C0 12.1264 11.4656 0.652106 25.7 0.478516H26.5332C36.992 0.669465 45.9406 7.04889 49.8897 16.0929C46.7564 12.3694 42.0522 9.99992 36.8011 9.99992C27.3404 9.99992 19.6764 17.6726 19.6764 27.1246Z" fill="#1B1B1B"/>
</svg>
