<svg width="12" height="8" viewBox="0 0 12 8" fill="none" xmlns="http://www.w3.org/2000/svg">
<path d="M6 7.33366C5.8565 7.33366 5.71767 7.30821 5.5835 7.25732C5.44861 7.20643 5.33632 7.13858 5.24664 7.05376L0.295964 2.37183C0.0986543 2.18523 0 1.94774 0 1.65936C0 1.37098 0.0986543 1.13349 0.295964 0.94689C0.493273 0.760291 0.744394 0.666992 1.04933 0.666992C1.35426 0.666992 1.60538 0.760291 1.80269 0.94689L6 4.91636L10.1973 0.94689C10.3946 0.760291 10.6457 0.666992 10.9507 0.666992C11.2556 0.666992 11.5067 0.760291 11.704 0.94689C11.9013 1.13349 12 1.37098 12 1.65936C12 1.94774 11.9013 2.18523 11.704 2.37183L6.75336 7.05376C6.64574 7.15554 6.52915 7.22747 6.40359 7.26954C6.27803 7.31228 6.1435 7.33366 6 7.33366Z" fill="black"/>
</svg>
